<svg width="195" height="281" viewBox="0 0 195 281" xmlns="http://www.w3.org/2000/svg"><title>Fill 8</title><path d="M11.758 281C5.196 281 .672 276.433.672 269.76L0 11.24C0 4.568 5.196 0 11.758 0h167.327c11.411 0 11.411 6.695 11.411 13.7v19.32c0 12.646-1.711 13.7-13.836 13.7H46.748v62.176h115.361c6.562 0 11.086 4.917 11.086 11.57v23.908c0 6.675-4.524 11.572-11.086 11.572H46.748v78.334h134.415c12.105 0 13.837 1.054 13.837 13.7v18.969c0 7.025 0 14.051-11.412 14.051H11.758z" fill-rule="evenodd" opacity=".03"/></svg>