<svg width="59" height="15" viewBox="0 0 59 15" xmlns="http://www.w3.org/2000/svg"><title>github</title><path d="M11.35 6.452H6.473c-.126 0-.228.095-.228.211v2.21c0 .116.102.21.228.21h1.902v2.746s-.427.134-1.608.134c-1.393 0-3.338-.472-3.338-4.437 0-3.966 2.026-4.487 3.928-4.487 1.646 0 2.355.268 2.807.397.142.041.273-.09.273-.207l.544-2.134c0-.054-.02-.12-.087-.165-.183-.12-1.302-.7-4.127-.7C3.514.23.175 1.511.175 7.68c0 6.171 3.823 7.09 7.043 7.09 2.668 0 4.285-1.056 4.285-1.056.067-.034.074-.12.074-.16v-6.89c0-.116-.103-.21-.228-.21M36.672.968c0-.117-.1-.212-.227-.212H33.7c-.125 0-.227.095-.227.212l.001 4.916h-4.278V.968c0-.117-.102-.212-.227-.212h-2.745c-.125 0-.227.095-.227.212v13.315c0 .117.102.212.227.212h2.745c.125 0 .227-.095.227-.212V8.586h4.278l-.008 5.697c0 .117.103.212.228.212h2.751c.126 0 .227-.095.227-.212V.968M16.628 2.715c0-.916-.792-1.656-1.77-1.656-.976 0-1.77.74-1.77 1.656 0 .915.794 1.658 1.77 1.658.978 0 1.77-.743 1.77-1.658m-.196 8.757V5.327c0-.117-.101-.212-.227-.212h-2.736a.251.251 0 0 0-.238.237v8.806c0 .258.173.334.399.334h2.466c.27 0 .336-.122.336-.339v-2.681m30.892-6.337H44.6c-.124 0-.227.096-.227.213v6.526s-.692.47-1.673.47c-.983 0-1.243-.413-1.243-1.304V5.348c0-.117-.102-.213-.227-.213h-2.764c-.125 0-.227.096-.227.213v6.123c0 2.65 1.591 3.297 3.782 3.297 1.796 0 3.245-.92 3.245-.92s.07.485.1.543a.242.242 0 0 0 .2.114l1.759-.007c.125 0 .227-.095.227-.211V5.348c0-.117-.103-.213-.228-.213m7.594-.298c-1.547 0-2.599.639-2.599.639V.968c0-.117-.101-.212-.226-.212H49.34c-.126 0-.227.095-.227.212v13.315c0 .117.101.212.227.212h1.91a.233.233 0 0 0 .2-.113c.047-.072.115-.613.115-.613s1.126.987 3.257.987c2.501 0 3.936-1.176 3.936-5.28s-2.292-4.64-3.84-4.64zm-1.074 7.5c-.944-.028-1.585-.425-1.585-.425V7.697s.631-.36 1.407-.423c.981-.082 1.926.192 1.926 2.361 0 2.287-.426 2.738-1.748 2.702zM24.271 5.114h-2.059l-.002-2.52c0-.096-.054-.144-.173-.144h-2.806c-.109 0-.167.044-.167.142v2.604s-1.407.315-1.502.34a.215.215 0 0 0-.164.204v1.636c0 .118.102.213.227.213h1.439v3.938c0 2.928 2.213 3.215 3.707 3.215.683 0 1.5-.203 1.635-.25a.195.195 0 0 0 .128-.19l.003-1.803c0-.117-.107-.213-.228-.213-.12 0-.427.046-.743.046-1.012 0-1.354-.436-1.354-1V7.588h2.06c.125 0 .226-.095.226-.213v-2.05c0-.117-.101-.212-.227-.212" fill="#38274E" fill-rule="evenodd"/></svg>