<svg width="55" height="45" viewBox="0 0 55 45" xmlns="http://www.w3.org/2000/svg"><title>Group 2</title><g fill="#38274E"><path d="M54.962 21.536c-.181-2.797-1.447-4.783-3.164-6.497a19.22 19.22 0 0 0-2.893-2.347c-3.163-2.256-7.05-4.241-10.124-7.4l-.09-.09c-2.44-2.437-4.7-3.43-7.05-3.159-2.17.18-4.249 1.444-6.418 3.52-1.899 1.805-3.797 4.241-5.786 7.13-1.536 2.255-3.073 4.782-4.7 7.49-1.537 2.617-2.35 4.963-2.621 7.039-.452 3.339.452 6.136 2.17 8.393 1.536 2.075 3.705 3.7 6.146 5.053 2.712 1.444 5.695 2.527 8.587 3.25.09 0 .18 0 .271.09 1.085-1.625 2.531-2.798 3.797-3.52-4.068-.271-7.955-2.256-10.124-5.776-3.164-5.234-1.989-11.912 2.44-15.793.181-1.534 1.356-3.158 3.074-3.97.18-.09.452-.09.632.09.543.541.904 1.173.904 1.173 3.255-1.083 6.78-.632 9.763.902 1.988 1.083 3.344 2.437 3.706 4.061-.09 3.79.904 7.22 1.356 8.032.09.18.271.361.361.451.181-.18.543-.27.814-.09.271.18.361.632.18.903.272.27.543.631.724 1.353-.09.09-.181.09-.271.18v.09c.09.633.09 1.174-.09 1.716-.814 2.256-3.888 4.331-6.69 5.595-1.536.632-3.344 1.083-5.062 1.173.814.902 1.537 2.707 1.446 4.422 1.628 0 3.255-.27 4.791-.722 1.266-.451 2.531-.993 3.706-1.805 1.989-1.444 3.797-3.52 5.514-6.317 1.085-1.895 2.17-4.151 3.164-6.859 1.266-3.248 1.718-5.775 1.537-7.76z"/><circle cx="49.5" cy="3.5" r="3.5"/><circle cx="5" cy="38" r="5"/></g></svg>