<svg width="754" height="74" viewBox="0 0 754 74" xmlns="http://www.w3.org/2000/svg"><title>logo</title><defs><linearGradient x1="941.72%" y1="273.025%" x2="1017.448%" y2="-103.694%" id="a"><stop stop-color="#633574" offset="0%"/><stop stop-color="#170F26" offset="100%"/></linearGradient></defs><path d="M279.584 480.462c-4.013 3.6-9.72 5.127-16.135 5.127h-6.777c-7.763 0-14.713-3.954-18.547-10.154-1.337-1.977-2.14-3.954-2.497-5.846-.713-3.679-.624-5.207-.624-7.279v.185c0-1.797.095-3.504 2.854-3.504h6.063c1.427 0 2.319.719 2.675 2.157.357 1.162.268 1.437.268 2.875 0 .45.089 1.258.178 2.426.976 4.403 4.994 7.638 9.63 7.638h6.777c5.345 0 9.982-2.97 10.785-7.728.089-.629.183-1.173.183-1.797.084-1.168.173-3.864-1.337-5.212-2.502-2.156-7.942-3.055-14.362-4.582-11.408-2.606-23.714-6.11-23.714-18.151v-1.253c0-1.892-.089-3.774.54-6.2l-.094.09c1.873-9.975 11.057-17.253 21.222-17.253h6.777c5.345 0 10.428 1.977 14.44 5.206 4.013 3.24 6.51 9.435 6.242 16.354-.083 1.803-.083 3.505-2.853 3.505h-5.885c-1.694 0-2.76-1.433-2.854-2.876-.267-7.632-3.383-10.508-9.09-10.508h-6.777c-4.547 0-8.738 3.325-9.72 7.908v-.095c-.267 1.527-.802 4.223 1.428 6.47 1.154 1.173 2.491 1.976 3.834 2.336l10.25 2.875c5.355 1.528 9.184 2.516 11.413 3.325a27.273 27.273 0 0 1 6.247 3.055c3.65 2.516 6.237 6.83 6.237 12.94 0 6.829-2.765 14.371-6.777 17.966m81.532-33.599c-1.07-2.875-1.788-4.678-2.056-5.661-.262-.994-.624-1.797-.891-2.79-.625-1.793-1.154-3.68-2.14-6.465l-7.223 20.392 12.31-5.476zm21.664 37.914h-6.42c-1.873 0-2.23-.988-2.854-2.341l-8.115-23.622-21.93 9.79-4.904 13.832c-.625 1.443-.803 2.341-2.943 2.341h-6.153c-1.426 0-2.942-1.168-2.942-2.875 0-.36 20.42-61.008 22.733-66.663.624-1.354 1.07-2.342 2.853-2.342h7.847c1.783 0 2.145 1.168 2.77 2.342l22.822 65.585c.089.629.089.719.089 1.078 0 1.887-.98 2.875-2.853 2.875zm66.897-60.291v56.785c0 1.797-.09 3.504-2.854 3.504h-6.152c-2.76 0-2.854-1.707-2.854-3.504v-56.785h-17.299c-3.115 0-3.561-.623-3.561-3.499v-4.582c0-1.798.089-3.505 2.853-3.505h47.522c2.765 0 2.943 1.707 2.943 3.505v4.582c0 2.876-.362 3.5-3.478 3.5h-17.12zm66.959 60.291c-1.689 0-2.854-1.168-2.854-2.876l-.173-66.13c0-1.706 1.338-2.875 3.027-2.875h43.069c2.937 0 2.937 1.713 2.937 3.505v4.942c0 3.235-.44 3.504-3.561 3.504h-33.439v15.905h29.694c1.689 0 2.853 1.258 2.853 2.96v6.116c0 1.707-1.164 2.96-2.853 2.96h-29.694v20.038h34.598c3.116 0 3.561.27 3.561 3.504v4.853c0 1.797 0 3.594-2.937 3.594h-44.228zm94.246 0c-1.784 0-2.676-.989-2.676-2.876l-.178-66.13c0-1.886.981-2.875 2.854-2.875h6.152c2.765 0 2.854 1.713 2.854 3.505v56.425h29.599c3.215 0 3.477.27 3.477 3.504v4.853c0 1.797-.089 3.594-2.853 3.594h-39.23zm88.98 0c-1.783 0-2.675-.989-2.675-2.876l-.178-66.13c0-1.886.98-2.875 2.853-2.875h6.153c2.764 0 2.853 1.713 2.853 3.505v56.425h29.6c3.21 0 3.477.27 3.477 3.504v4.853c0 1.797-.09 3.594-2.854 3.594h-39.229zm97.986-2.876c0 1.438-1.249 2.876-2.943 2.876h-6.064c-1.694 0-2.675-1.438-2.675-2.876l-.178-66.13c0-1.432 1.16-2.875 2.853-2.875h6.064c1.694 0 2.943 1.443 2.943 2.876v66.13zm76.051-57.415v56.785c0 1.797-.09 3.504-2.854 3.504h-6.152c-2.76 0-2.854-1.707-2.854-3.504v-56.785H844.74c-3.115 0-3.561-.623-3.561-3.499v-4.582c0-1.798.089-3.505 2.853-3.505h47.522c2.765 0 2.943 1.707 2.943 3.505v4.582c0 2.876-.362 3.5-3.478 3.5H873.9zm66.959 60.291c-1.689 0-2.853-1.168-2.853-2.876l-.174-66.13c0-1.706 1.338-2.875 3.027-2.875h43.069c2.937 0 2.937 1.713 2.937 3.505v4.942c0 3.235-.44 3.504-3.561 3.504h-33.439v15.905h29.694c1.689 0 2.853 1.258 2.853 2.96v6.116c0 1.707-1.164 2.96-2.853 2.96h-29.694v20.038h34.598c3.116 0 3.562.27 3.562 3.504v4.853c0 1.797 0 3.594-2.938 3.594h-44.228z" transform="translate(-235 -412)" fill="url(#a)" fill-rule="evenodd"/></svg>