<svg width="231" height="281" viewBox="0 0 231 281" xmlns="http://www.w3.org/2000/svg"><title>Fill 4</title><path d="M135.198 132.782c-4.182-11.24-6.99-18.287-8.035-22.13-1.025-3.885-2.44-7.026-3.485-10.91-2.439-7.005-4.51-14.382-8.362-25.272L87.09 154.19l48.107-21.408zM219.85 281h-25.09c-7.317 0-8.71-3.864-11.15-9.154l-31.709-92.344-85.697 38.268-19.165 54.076C44.601 277.487 43.904 281 35.542 281H11.499C5.924 281 0 276.433 0 269.76 0 268.353 79.794 31.263 88.834 9.153 91.273 3.864 93.014 0 99.984 0h30.663c6.97 0 8.383 4.567 10.823 9.154l89.182 256.39c.348 2.459.348 2.81.348 4.215 0 7.377-3.833 11.241-11.15 11.241z" fill-rule="evenodd" opacity=".03"/></svg>