<svg width="16" height="15" viewBox="0 0 16 15" xmlns="http://www.w3.org/2000/svg"><title>Shape</title><path d="M14.933 1.364C14.24.504 13.267.068 12 0c-1.293 0-2.253.573-2.933 1.364-.68.79-1.04 1.254-1.067 1.363-.027-.109-.373-.572-1.067-1.363C6.24.573 5.373 0 4 0 2.733.068 1.747.518 1.067 1.364.373 2.195.027 3.109 0 4.09c0 .71.12 2.074.893 3.64C1.667 9.3 4.013 11.742 8 15c3.973-3.26 6.36-5.686 7.12-7.268.76-1.582.88-2.96.88-3.641-.027-.982-.373-1.896-1.067-2.755v.028z" fill="#38274E" fill-rule="evenodd"/></svg>