<svg width="201" height="287" viewBox="0 0 201 287" xmlns="http://www.w3.org/2000/svg"><title>Fill 1</title><path d="M174.479 267.004C158.775 281.042 136.442 287 111.337 287H84.815c-30.38 0-57.579-15.42-72.584-39.601-5.235-7.71-8.375-15.42-9.771-22.8C-.332 210.25.017 204.293.017 196.212v.722c0-7.01.37-13.668 11.167-13.668h23.73c5.583 0 9.073 2.804 10.468 8.41 1.396 4.536 1.047 5.608 1.047 11.215 0 1.753.35 4.907.698 9.463 3.818 17.172 19.542 29.788 37.688 29.788h26.522c20.917 0 39.063-11.585 42.204-30.139.349-2.453.718-4.576.718-7.009.329-4.556.678-15.07-5.234-20.326-9.792-8.411-31.079-11.916-56.204-17.873C48.174 156.632.017 142.964.017 96.003v-4.885c0-7.38-.349-14.72 2.114-24.182l-.37.35C9.092 28.387 45.034 0 84.816 0h26.522c20.917 0 40.808 7.71 56.511 20.306 15.704 12.637 25.475 36.797 24.428 63.782-.329 7.03-.329 13.668-11.167 13.668h-23.032c-6.63 0-10.797-5.587-11.166-11.215-1.047-29.768-13.24-40.982-35.574-40.982H84.815c-17.797 0-34.198 12.967-38.037 30.84v-.371c-1.047 5.957-3.14 16.47 5.584 25.232 4.516 4.577 9.75 7.71 15.005 9.112l40.11 11.214c20.959 5.958 35.944 9.813 44.668 12.967 9.422 3.175 17.469 7.36 24.448 11.916C190.88 156.28 201 173.103 201 196.934c0 26.634-10.818 56.051-26.521 70.07" fill-rule="evenodd" opacity=".03"/></svg>